<?xml version="1.0" encoding="UTF-8"?>
<svg xmlns="http://www.w3.org/2000/svg" xmlns:xlink="http://www.w3.org/1999/xlink" width="854" height="480" viewBox="0 0 854 480">
<defs>
<g>
<g id="glyph-0-0">
<path d="M 1.742188 -0.195312 C 1.792969 -0.144531 1.832031 -0.0898438 1.859375 -0.03125 C 1.890625 0.03125 1.90625 0.105469 1.90625 0.195312 C 1.90625 0.285156 1.886719 0.371094 1.847656 0.449219 C 1.808594 0.527344 1.746094 0.597656 1.667969 0.65625 C 1.582031 0.714844 1.480469 0.761719 1.363281 0.792969 C 1.246094 0.828125 1.101562 0.84375 0.925781 0.84375 C 0.644531 0.84375 0.429688 0.800781 0.289062 0.71875 C 0.148438 0.636719 0.078125 0.515625 0.078125 0.355469 C 0.078125 0.226562 0.128906 0.125 0.230469 0.0507812 C 0.332031 -0.0234375 0.460938 -0.0664062 0.617188 -0.0703125 L 0.617188 -0.0976562 C 0.582031 -0.109375 0.542969 -0.125 0.5 -0.140625 C 0.460938 -0.160156 0.425781 -0.179688 0.398438 -0.203125 C 0.363281 -0.226562 0.335938 -0.257812 0.316406 -0.296875 C 0.296875 -0.332031 0.285156 -0.375 0.285156 -0.429688 C 0.285156 -0.496094 0.308594 -0.558594 0.359375 -0.613281 C 0.40625 -0.671875 0.476562 -0.71875 0.574219 -0.757812 L 0.574219 -0.789062 C 0.453125 -0.84375 0.359375 -0.917969 0.289062 -1.007812 C 0.222656 -1.097656 0.191406 -1.199219 0.191406 -1.316406 C 0.191406 -1.496094 0.257812 -1.640625 0.386719 -1.753906 C 0.519531 -1.867188 0.691406 -1.925781 0.894531 -1.925781 C 0.953125 -1.925781 1.011719 -1.921875 1.066406 -1.910156 C 1.121094 -1.898438 1.179688 -1.882812 1.238281 -1.863281 L 1.890625 -1.863281 L 1.890625 -1.683594 L 1.449219 -1.683594 L 1.449219 -1.671875 C 1.496094 -1.617188 1.53125 -1.554688 1.554688 -1.492188 C 1.578125 -1.425781 1.589844 -1.359375 1.589844 -1.296875 C 1.589844 -1.132812 1.523438 -0.992188 1.390625 -0.878906 C 1.253906 -0.765625 1.101562 -0.707031 0.921875 -0.707031 L 0.691406 -0.707031 C 0.664062 -0.699219 0.632812 -0.679688 0.601562 -0.652344 C 0.570312 -0.625 0.554688 -0.589844 0.554688 -0.546875 C 0.554688 -0.5 0.566406 -0.460938 0.59375 -0.4375 C 0.621094 -0.414062 0.652344 -0.394531 0.691406 -0.386719 C 0.726562 -0.378906 0.769531 -0.371094 0.820312 -0.367188 C 0.867188 -0.367188 0.917969 -0.363281 0.96875 -0.363281 C 1.027344 -0.363281 1.101562 -0.359375 1.199219 -0.351562 C 1.296875 -0.34375 1.363281 -0.339844 1.40625 -0.339844 C 1.464844 -0.335938 1.523438 -0.324219 1.582031 -0.296875 C 1.640625 -0.273438 1.691406 -0.238281 1.742188 -0.195312 M 1.230469 -1.304688 C 1.230469 -1.453125 1.199219 -1.570312 1.136719 -1.660156 C 1.078125 -1.746094 0.992188 -1.789062 0.886719 -1.789062 C 0.824219 -1.789062 0.773438 -1.777344 0.730469 -1.753906 C 0.691406 -1.730469 0.65625 -1.695312 0.628906 -1.648438 C 0.601562 -1.605469 0.585938 -1.554688 0.574219 -1.496094 C 0.5625 -1.4375 0.558594 -1.378906 0.558594 -1.316406 C 0.558594 -1.175781 0.589844 -1.0625 0.652344 -0.972656 C 0.710938 -0.882812 0.792969 -0.839844 0.890625 -0.839844 C 0.996094 -0.839844 1.082031 -0.882812 1.140625 -0.972656 C 1.199219 -1.058594 1.230469 -1.171875 1.230469 -1.304688 M 1.59375 0.265625 C 1.59375 0.195312 1.578125 0.136719 1.542969 0.0898438 C 1.511719 0.046875 1.460938 0.015625 1.394531 0 C 1.359375 -0.0078125 1.285156 -0.0117188 1.175781 -0.0195312 C 1.066406 -0.0234375 0.9375 -0.0273438 0.792969 -0.0273438 C 0.65625 0 0.558594 0.0429688 0.5 0.105469 C 0.441406 0.167969 0.414062 0.25 0.414062 0.347656 C 0.414062 0.390625 0.421875 0.433594 0.441406 0.476562 C 0.460938 0.515625 0.496094 0.550781 0.542969 0.585938 C 0.585938 0.621094 0.644531 0.648438 0.71875 0.667969 C 0.792969 0.6875 0.886719 0.699219 0.992188 0.699219 C 1.179688 0.699219 1.324219 0.664062 1.433594 0.589844 C 1.539062 0.519531 1.59375 0.410156 1.59375 0.265625 Z "/>
</g>
<g id="glyph-0-1">
<path d="M 1.910156 -0.0351562 C 1.851562 -0.0117188 1.796875 0.00390625 1.753906 0.0195312 C 1.707031 0.03125 1.65625 0.0390625 1.601562 0.0390625 C 1.503906 0.0390625 1.421875 0.015625 1.363281 -0.03125 C 1.304688 -0.078125 1.269531 -0.144531 1.25 -0.234375 L 1.238281 -0.234375 C 1.15625 -0.140625 1.070312 -0.0742188 0.976562 -0.0234375 C 0.878906 0.0234375 0.765625 0.046875 0.632812 0.046875 C 0.492188 0.046875 0.378906 0.00390625 0.289062 -0.0820312 C 0.195312 -0.167969 0.152344 -0.28125 0.152344 -0.417969 C 0.152344 -0.492188 0.160156 -0.554688 0.183594 -0.613281 C 0.203125 -0.671875 0.234375 -0.722656 0.273438 -0.765625 C 0.304688 -0.804688 0.347656 -0.839844 0.398438 -0.867188 C 0.449219 -0.898438 0.5 -0.921875 0.546875 -0.941406 C 0.601562 -0.960938 0.71875 -1 0.890625 -1.058594 C 1.066406 -1.117188 1.183594 -1.164062 1.242188 -1.195312 L 1.242188 -1.382812 C 1.242188 -1.402344 1.242188 -1.433594 1.234375 -1.480469 C 1.226562 -1.527344 1.210938 -1.570312 1.1875 -1.613281 C 1.164062 -1.660156 1.128906 -1.699219 1.082031 -1.734375 C 1.035156 -1.769531 0.96875 -1.785156 0.886719 -1.785156 C 0.828125 -1.785156 0.773438 -1.777344 0.722656 -1.757812 C 0.671875 -1.738281 0.636719 -1.71875 0.617188 -1.695312 C 0.617188 -1.671875 0.625 -1.632812 0.636719 -1.582031 C 0.648438 -1.535156 0.652344 -1.488281 0.652344 -1.445312 C 0.652344 -1.402344 0.632812 -1.363281 0.59375 -1.324219 C 0.554688 -1.289062 0.5 -1.269531 0.425781 -1.269531 C 0.363281 -1.269531 0.316406 -1.292969 0.289062 -1.339844 C 0.257812 -1.382812 0.242188 -1.433594 0.242188 -1.488281 C 0.242188 -1.546875 0.261719 -1.601562 0.304688 -1.65625 C 0.347656 -1.710938 0.398438 -1.757812 0.464844 -1.796875 C 0.523438 -1.832031 0.589844 -1.863281 0.671875 -1.886719 C 0.753906 -1.914062 0.832031 -1.925781 0.910156 -1.925781 C 1.015625 -1.925781 1.109375 -1.917969 1.1875 -1.902344 C 1.265625 -1.890625 1.339844 -1.859375 1.402344 -1.808594 C 1.46875 -1.761719 1.515625 -1.699219 1.550781 -1.617188 C 1.585938 -1.539062 1.601562 -1.433594 1.601562 -1.308594 C 1.601562 -1.128906 1.597656 -0.96875 1.59375 -0.828125 C 1.589844 -0.6875 1.589844 -0.535156 1.589844 -0.367188 C 1.589844 -0.320312 1.597656 -0.28125 1.613281 -0.25 C 1.632812 -0.222656 1.660156 -0.195312 1.695312 -0.175781 C 1.714844 -0.164062 1.742188 -0.160156 1.785156 -0.15625 C 1.824219 -0.15625 1.867188 -0.15625 1.910156 -0.15625 L 1.910156 -0.0351562 M 1.246094 -1.035156 C 1.140625 -1.003906 1.046875 -0.972656 0.964844 -0.945312 C 0.882812 -0.914062 0.808594 -0.875 0.738281 -0.828125 C 0.675781 -0.785156 0.625 -0.734375 0.589844 -0.675781 C 0.550781 -0.617188 0.535156 -0.546875 0.535156 -0.464844 C 0.535156 -0.359375 0.5625 -0.285156 0.617188 -0.234375 C 0.671875 -0.183594 0.742188 -0.160156 0.824219 -0.160156 C 0.914062 -0.160156 0.996094 -0.179688 1.0625 -0.226562 C 1.132812 -0.269531 1.191406 -0.320312 1.234375 -0.378906 Z "/>
</g>
<g id="glyph-0-2">
<path d="M 1.292969 -0.0820312 C 1.210938 -0.046875 1.132812 -0.0195312 1.058594 0.00390625 C 0.984375 0.0273438 0.894531 0.0390625 0.789062 0.0390625 C 0.632812 0.0390625 0.523438 0 0.457031 -0.078125 C 0.394531 -0.15625 0.363281 -0.269531 0.363281 -0.414062 L 0.363281 -1.683594 L 0.0234375 -1.683594 L 0.0234375 -1.863281 L 0.371094 -1.863281 L 0.371094 -2.449219 L 0.714844 -2.449219 L 0.714844 -1.863281 L 1.253906 -1.863281 L 1.253906 -1.683594 L 0.71875 -1.683594 L 0.71875 -0.636719 C 0.71875 -0.558594 0.722656 -0.492188 0.726562 -0.441406 C 0.734375 -0.386719 0.746094 -0.339844 0.769531 -0.300781 C 0.789062 -0.265625 0.820312 -0.238281 0.859375 -0.21875 C 0.902344 -0.199219 0.957031 -0.191406 1.023438 -0.191406 C 1.054688 -0.191406 1.101562 -0.191406 1.164062 -0.199219 C 1.222656 -0.203125 1.269531 -0.210938 1.292969 -0.21875 Z "/>
</g>
<g id="glyph-0-3">
<path d="M 1.964844 -0.957031 C 1.964844 -0.824219 1.941406 -0.695312 1.902344 -0.566406 C 1.859375 -0.441406 1.800781 -0.332031 1.722656 -0.242188 C 1.636719 -0.140625 1.535156 -0.0664062 1.417969 -0.015625 C 1.300781 0.03125 1.171875 0.0585938 1.03125 0.0585938 C 0.910156 0.0585938 0.796875 0.0351562 0.691406 -0.0117188 C 0.582031 -0.0546875 0.488281 -0.121094 0.402344 -0.207031 C 0.320312 -0.292969 0.253906 -0.394531 0.207031 -0.515625 C 0.15625 -0.640625 0.132812 -0.777344 0.132812 -0.929688 C 0.132812 -1.222656 0.21875 -1.460938 0.386719 -1.648438 C 0.558594 -1.832031 0.78125 -1.925781 1.058594 -1.925781 C 1.320312 -1.925781 1.539062 -1.835938 1.707031 -1.660156 C 1.878906 -1.484375 1.964844 -1.25 1.964844 -0.957031 M 1.570312 -0.953125 C 1.570312 -1.046875 1.5625 -1.148438 1.542969 -1.253906 C 1.523438 -1.359375 1.496094 -1.449219 1.457031 -1.519531 C 1.414062 -1.601562 1.363281 -1.664062 1.296875 -1.710938 C 1.230469 -1.757812 1.148438 -1.78125 1.054688 -1.78125 C 0.957031 -1.78125 0.875 -1.757812 0.804688 -1.710938 C 0.734375 -1.660156 0.679688 -1.59375 0.636719 -1.511719 C 0.597656 -1.433594 0.566406 -1.347656 0.550781 -1.246094 C 0.535156 -1.148438 0.527344 -1.054688 0.527344 -0.960938 C 0.527344 -0.839844 0.535156 -0.726562 0.554688 -0.625 C 0.574219 -0.519531 0.605469 -0.429688 0.648438 -0.347656 C 0.691406 -0.265625 0.746094 -0.203125 0.8125 -0.15625 C 0.878906 -0.109375 0.957031 -0.0859375 1.054688 -0.0859375 C 1.214844 -0.0859375 1.339844 -0.164062 1.433594 -0.316406 C 1.523438 -0.46875 1.570312 -0.683594 1.570312 -0.953125 Z "/>
</g>
</g>
</defs>
<g fill="rgb(11.764706%, 56.470588%, 100%)" fill-opacity="1">
<use xlink:href="#glyph-0-0" x="30" y="23.56543"/>
<use xlink:href="#glyph-0-1" x="32" y="23.56543"/>
<use xlink:href="#glyph-0-2" x="34" y="23.56543"/>
<use xlink:href="#glyph-0-3" x="35" y="23.56543"/>
</g>
</svg>
