<?xml version="1.0" encoding="UTF-8"?>
<svg xmlns="http://www.w3.org/2000/svg" xmlns:xlink="http://www.w3.org/1999/xlink" width="1920" height="1080" viewBox="0 0 1920 1080">
<defs>
<g>
<g id="glyph-0-0">
<path d="M 2.398438 -2.824219 L 2.492188 -5.042969 C 2.9375 -4.960938 3.269531 -4.917969 3.492188 -4.90625 C 3.714844 -4.894531 3.953125 -4.90625 4.207031 -4.9375 C 4.460938 -4.96875 4.707031 -5.03125 4.953125 -5.132812 C 5.03125 -5.175781 5.09375 -5.195312 5.132812 -5.195312 C 5.214844 -5.195312 5.246094 -5.117188 5.226562 -4.96875 C 5.207031 -4.816406 5.082031 -4.703125 4.859375 -4.632812 C 4.636719 -4.5625 4.3125 -4.527344 3.890625 -4.527344 C 3.464844 -4.527344 3.078125 -4.546875 2.734375 -4.585938 L 2.671875 -3.160156 C 3.097656 -3.484375 3.515625 -3.644531 3.917969 -3.644531 C 4.140625 -3.644531 4.449219 -3.570312 4.84375 -3.417969 C 5.242188 -3.265625 5.457031 -3.042969 5.5 -2.75 C 5.539062 -2.457031 5.558594 -2.257812 5.558594 -2.15625 C 5.558594 -1.75 5.398438 -1.398438 5.074219 -1.09375 C 4.75 -0.789062 4.347656 -0.648438 3.875 -0.667969 C 3.398438 -0.6875 3.027344 -0.789062 2.765625 -0.972656 C 2.5 -1.15625 2.34375 -1.316406 2.292969 -1.457031 C 2.242188 -1.601562 2.21875 -1.703125 2.21875 -1.761719 C 2.21875 -1.863281 2.253906 -1.9375 2.324219 -1.988281 C 2.394531 -2.039062 2.472656 -2.066406 2.550781 -2.066406 C 2.613281 -2.066406 2.695312 -2.039062 2.796875 -1.988281 C 2.894531 -1.9375 2.933594 -1.847656 2.902344 -1.714844 C 2.871094 -1.585938 2.816406 -1.507812 2.734375 -1.488281 C 2.714844 -1.46875 2.703125 -1.449219 2.703125 -1.429688 C 2.703125 -1.367188 2.773438 -1.277344 2.917969 -1.15625 C 3.058594 -1.03125 3.316406 -0.953125 3.691406 -0.910156 C 4.066406 -0.871094 4.386719 -0.972656 4.648438 -1.214844 C 4.910156 -1.457031 5.042969 -1.75 5.042969 -2.097656 C 5.042969 -2.21875 5.023438 -2.410156 4.980469 -2.671875 C 4.941406 -2.9375 4.785156 -3.128906 4.511719 -3.25 C 4.238281 -3.371094 4.011719 -3.433594 3.828125 -3.433594 C 3.707031 -3.433594 3.519531 -3.386719 3.265625 -3.296875 C 3.011719 -3.207031 2.796875 -3.046875 2.613281 -2.824219 L 2.398438 -2.824219 M 6.53125 -0.304688 C 5.925781 0.363281 5.097656 0.730469 4.054688 0.789062 C 3.011719 0.851562 2.121094 0.527344 1.382812 -0.183594 C 0.644531 -0.890625 0.269531 -1.722656 0.257812 -2.671875 C 0.25 -3.625 0.507812 -4.414062 1.03125 -5.042969 C 1.558594 -5.671875 2.085938 -6.054688 2.613281 -6.199219 C 3.140625 -6.339844 3.574219 -6.410156 3.917969 -6.410156 C 4.222656 -6.410156 4.621094 -6.347656 5.117188 -6.226562 C 5.617188 -6.105469 6.136719 -5.726562 6.683594 -5.089844 C 7.230469 -4.449219 7.492188 -3.660156 7.472656 -2.71875 C 7.453125 -1.777344 7.140625 -0.972656 6.53125 -0.304688 M 5.164062 0.335938 C 5.671875 0.171875 6.148438 -0.210938 6.59375 -0.820312 C 7.039062 -1.429688 7.242188 -2.171875 7.199219 -3.054688 C 7.160156 -3.933594 6.808594 -4.683594 6.152344 -5.300781 C 5.492188 -5.917969 4.703125 -6.210938 3.78125 -6.183594 C 2.859375 -6.152344 2.082031 -5.796875 1.441406 -5.117188 C 0.804688 -4.441406 0.496094 -3.65625 0.515625 -2.765625 C 0.535156 -1.875 0.816406 -1.144531 1.351562 -0.578125 C 1.886719 -0.0117188 2.378906 0.324219 2.824219 0.425781 C 3.269531 0.527344 3.617188 0.578125 3.859375 0.578125 C 4.222656 0.578125 4.660156 0.496094 5.164062 0.335938 Z "/>
</g>
</g>
</defs>
<g fill="rgb(0%, 83.137255%, 100%)" fill-opacity="1">
<use xlink:href="#glyph-0-0" x="30" y="26.683594"/>
</g>
</svg>
