<?xml version="1.0" encoding="UTF-8"?>
<svg xmlns="http://www.w3.org/2000/svg" xmlns:xlink="http://www.w3.org/1999/xlink" width="1920" height="1080" viewBox="0 0 1920 1080">
<defs>
<g>
<g id="glyph-0-0">
<path d="M 2.527344 -1.675781 C 2.605469 -1.589844 2.664062 -1.496094 2.699219 -1.394531 C 2.734375 -1.292969 2.753906 -1.175781 2.753906 -1.039062 C 2.753906 -0.714844 2.636719 -0.449219 2.394531 -0.238281 C 2.15625 -0.03125 1.863281 0.0742188 1.507812 0.0742188 C 1.34375 0.0742188 1.179688 0.0507812 1.019531 0 C 0.855469 -0.0507812 0.714844 -0.113281 0.59375 -0.183594 L 0.484375 0.00390625 L 0.277344 0.00390625 L 0.242188 -1.25 L 0.449219 -1.25 C 0.492188 -1.09375 0.542969 -0.957031 0.601562 -0.832031 C 0.660156 -0.707031 0.734375 -0.589844 0.828125 -0.480469 C 0.917969 -0.378906 1.023438 -0.300781 1.144531 -0.238281 C 1.261719 -0.179688 1.402344 -0.148438 1.558594 -0.148438 C 1.675781 -0.148438 1.78125 -0.164062 1.871094 -0.195312 C 1.957031 -0.226562 2.03125 -0.269531 2.085938 -0.328125 C 2.140625 -0.382812 2.179688 -0.449219 2.207031 -0.527344 C 2.234375 -0.605469 2.246094 -0.691406 2.246094 -0.792969 C 2.246094 -0.9375 2.207031 -1.074219 2.125 -1.199219 C 2.039062 -1.328125 1.917969 -1.421875 1.753906 -1.488281 C 1.644531 -1.53125 1.515625 -1.582031 1.371094 -1.636719 C 1.226562 -1.691406 1.101562 -1.742188 0.996094 -1.789062 C 0.792969 -1.882812 0.632812 -2.003906 0.515625 -2.152344 C 0.402344 -2.304688 0.34375 -2.5 0.34375 -2.742188 C 0.34375 -2.882812 0.375 -3.011719 0.429688 -3.132812 C 0.488281 -3.25 0.566406 -3.359375 0.671875 -3.453125 C 0.773438 -3.542969 0.890625 -3.613281 1.027344 -3.664062 C 1.160156 -3.714844 1.304688 -3.738281 1.449219 -3.738281 C 1.617188 -3.738281 1.769531 -3.714844 1.902344 -3.660156 C 2.035156 -3.609375 2.15625 -3.550781 2.269531 -3.480469 L 2.375 -3.65625 L 2.578125 -3.65625 L 2.601562 -2.441406 L 2.390625 -2.441406 C 2.351562 -2.582031 2.3125 -2.714844 2.265625 -2.84375 C 2.214844 -2.96875 2.15625 -3.085938 2.078125 -3.1875 C 2.003906 -3.289062 1.914062 -3.367188 1.808594 -3.425781 C 1.703125 -3.484375 1.570312 -3.515625 1.417969 -3.515625 C 1.253906 -3.515625 1.113281 -3.460938 1 -3.359375 C 0.882812 -3.253906 0.828125 -3.125 0.828125 -2.972656 C 0.828125 -2.816406 0.863281 -2.683594 0.9375 -2.582031 C 1.011719 -2.476562 1.121094 -2.390625 1.261719 -2.324219 C 1.386719 -2.265625 1.507812 -2.210938 1.628906 -2.167969 C 1.75 -2.125 1.867188 -2.078125 1.980469 -2.027344 C 2.085938 -1.984375 2.183594 -1.933594 2.277344 -1.875 C 2.375 -1.820312 2.457031 -1.753906 2.527344 -1.675781 Z "/>
</g>
<g id="glyph-0-1">
<path d="M 3.625 -3.472656 C 3.582031 -3.472656 3.527344 -3.460938 3.464844 -3.445312 C 3.398438 -3.425781 3.347656 -3.402344 3.304688 -3.378906 C 3.246094 -3.34375 3.199219 -3.296875 3.164062 -3.238281 C 3.128906 -3.183594 3.09375 -3.117188 3.0625 -3.039062 C 2.945312 -2.765625 2.773438 -2.339844 2.542969 -1.761719 C 2.3125 -1.183594 2.074219 -0.582031 1.832031 0.046875 L 1.617188 0.046875 C 1.371094 -0.617188 1.132812 -1.257812 0.902344 -1.875 C 0.671875 -2.492188 0.515625 -2.910156 0.433594 -3.125 C 0.414062 -3.179688 0.386719 -3.226562 0.351562 -3.265625 C 0.316406 -3.304688 0.269531 -3.34375 0.214844 -3.378906 C 0.167969 -3.410156 0.117188 -3.433594 0.0585938 -3.445312 C 0.00390625 -3.460938 -0.0507812 -3.46875 -0.0976562 -3.472656 L -0.0976562 -3.65625 L 1.414062 -3.65625 L 1.414062 -3.472656 C 1.285156 -3.464844 1.175781 -3.453125 1.089844 -3.433594 C 1 -3.414062 0.957031 -3.382812 0.957031 -3.335938 C 0.957031 -3.316406 0.960938 -3.292969 0.964844 -3.265625 C 0.972656 -3.242188 0.980469 -3.222656 0.984375 -3.207031 C 1.046875 -3.039062 1.152344 -2.761719 1.292969 -2.382812 C 1.4375 -2 1.640625 -1.460938 1.902344 -0.753906 C 2.03125 -1.074219 2.183594 -1.449219 2.351562 -1.882812 C 2.523438 -2.316406 2.636719 -2.613281 2.695312 -2.773438 C 2.753906 -2.929688 2.785156 -3.039062 2.796875 -3.101562 C 2.804688 -3.160156 2.808594 -3.210938 2.808594 -3.246094 C 2.808594 -3.285156 2.792969 -3.320312 2.757812 -3.347656 C 2.722656 -3.371094 2.675781 -3.394531 2.617188 -3.414062 C 2.558594 -3.429688 2.5 -3.445312 2.441406 -3.453125 C 2.386719 -3.460938 2.324219 -3.46875 2.265625 -3.472656 L 2.265625 -3.65625 L 3.625 -3.65625 Z "/>
</g>
<g id="glyph-0-2">
<path d="M 3.753906 -1.804688 C 3.753906 -1.496094 3.695312 -1.226562 3.578125 -0.996094 C 3.460938 -0.769531 3.308594 -0.582031 3.125 -0.433594 C 2.933594 -0.289062 2.722656 -0.179688 2.488281 -0.109375 C 2.25 -0.0351562 2.007812 0 1.757812 0 L 0.242188 0 L 0.242188 -0.183594 C 0.292969 -0.183594 0.355469 -0.1875 0.4375 -0.195312 C 0.515625 -0.207031 0.570312 -0.21875 0.59375 -0.230469 C 0.648438 -0.25 0.683594 -0.285156 0.707031 -0.328125 C 0.730469 -0.371094 0.742188 -0.425781 0.742188 -0.488281 L 0.742188 -3.125 C 0.742188 -3.183594 0.730469 -3.238281 0.710938 -3.28125 C 0.691406 -3.328125 0.652344 -3.367188 0.59375 -3.394531 C 0.542969 -3.417969 0.484375 -3.4375 0.421875 -3.449219 C 0.359375 -3.460938 0.308594 -3.46875 0.261719 -3.472656 L 0.261719 -3.65625 L 1.859375 -3.65625 C 2.082031 -3.65625 2.296875 -3.621094 2.511719 -3.554688 C 2.722656 -3.488281 2.910156 -3.394531 3.066406 -3.28125 C 3.28125 -3.128906 3.449219 -2.925781 3.570312 -2.679688 C 3.695312 -2.433594 3.753906 -2.140625 3.753906 -1.804688 M 3.125 -1.808594 C 3.125 -2.054688 3.089844 -2.273438 3.023438 -2.472656 C 2.960938 -2.671875 2.863281 -2.84375 2.738281 -2.992188 C 2.621094 -3.132812 2.476562 -3.242188 2.300781 -3.324219 C 2.128906 -3.40625 1.9375 -3.445312 1.726562 -3.445312 C 1.65625 -3.445312 1.578125 -3.445312 1.488281 -3.441406 C 1.398438 -3.4375 1.332031 -3.4375 1.289062 -3.433594 L 1.289062 -0.625 C 1.289062 -0.46875 1.335938 -0.363281 1.425781 -0.300781 C 1.519531 -0.242188 1.660156 -0.210938 1.847656 -0.210938 C 2.066406 -0.210938 2.257812 -0.25 2.417969 -0.328125 C 2.582031 -0.40625 2.714844 -0.511719 2.816406 -0.648438 C 2.921875 -0.792969 3 -0.960938 3.050781 -1.148438 C 3.097656 -1.339844 3.125 -1.558594 3.125 -1.808594 Z "/>
</g>
</g>
</defs>
<g fill="rgb(100%, 100%, 100%)" fill-opacity="1">
<use xlink:href="#glyph-0-0" x="30" y="24.838867"/>
<use xlink:href="#glyph-0-1" x="33" y="24.838867"/>
<use xlink:href="#glyph-0-2" x="37" y="24.838867"/>
</g>
</svg>
