<?xml version="1.0" encoding="UTF-8"?>
<svg xmlns="http://www.w3.org/2000/svg" xmlns:xlink="http://www.w3.org/1999/xlink" width="1920" height="1080" viewBox="0 0 1920 1080">
<defs>
<g>
<g id="glyph-0-0">
<path d="M 4.464844 -5.042969 L 4.464844 -1.976562 L 5.378906 -1.976562 L 5.378906 -1.761719 L 4.464844 -1.761719 L 4.464844 -1.0625 C 4.464844 -0.902344 4.679688 -0.820312 5.105469 -0.820312 L 5.105469 -0.667969 L 3.21875 -0.667969 L 3.21875 -0.820312 C 3.6875 -0.820312 3.917969 -0.910156 3.917969 -1.09375 L 3.917969 -1.761719 L 1.976562 -1.761719 L 1.976562 -1.914062 L 3.980469 -5.042969 L 4.464844 -5.042969 M 3.917969 -1.976562 L 3.917969 -4.464844 L 2.308594 -1.976562 L 3.917969 -1.976562 M 6.53125 -0.304688 C 5.925781 0.363281 5.097656 0.730469 4.054688 0.789062 C 3.011719 0.851562 2.121094 0.527344 1.382812 -0.183594 C 0.644531 -0.890625 0.269531 -1.722656 0.257812 -2.671875 C 0.25 -3.625 0.507812 -4.414062 1.03125 -5.042969 C 1.558594 -5.671875 2.085938 -6.054688 2.613281 -6.199219 C 3.140625 -6.339844 3.574219 -6.410156 3.917969 -6.410156 C 4.222656 -6.410156 4.621094 -6.347656 5.117188 -6.226562 C 5.617188 -6.105469 6.136719 -5.726562 6.683594 -5.089844 C 7.230469 -4.449219 7.492188 -3.660156 7.472656 -2.71875 C 7.453125 -1.777344 7.140625 -0.972656 6.53125 -0.304688 M 5.164062 0.335938 C 5.671875 0.171875 6.148438 -0.210938 6.59375 -0.820312 C 7.039062 -1.429688 7.242188 -2.171875 7.199219 -3.054688 C 7.160156 -3.933594 6.808594 -4.683594 6.152344 -5.300781 C 5.492188 -5.917969 4.703125 -6.210938 3.78125 -6.183594 C 2.859375 -6.152344 2.082031 -5.796875 1.441406 -5.117188 C 0.804688 -4.441406 0.496094 -3.65625 0.515625 -2.765625 C 0.535156 -1.875 0.816406 -1.144531 1.351562 -0.578125 C 1.886719 -0.0117188 2.378906 0.324219 2.824219 0.425781 C 3.269531 0.527344 3.617188 0.578125 3.859375 0.578125 C 4.222656 0.578125 4.660156 0.496094 5.164062 0.335938 Z "/>
</g>
</g>
</defs>
<g fill="rgb(0%, 83.137255%, 100%)" fill-opacity="1">
<use xlink:href="#glyph-0-0" x="30" y="26.683594"/>
</g>
</svg>
