<?xml version="1.0" encoding="UTF-8"?>
<svg xmlns="http://www.w3.org/2000/svg" xmlns:xlink="http://www.w3.org/1999/xlink" width="1920" height="1080" viewBox="0 0 1920 1080">
<defs>
<g>
<g id="glyph-0-0">
<path d="M 5.183594 0 L 0.476562 0 L 0.476562 -0.785156 C 0.683594 -0.992188 0.910156 -1.183594 1.152344 -1.355469 C 1.398438 -1.527344 1.648438 -1.679688 1.898438 -1.8125 C 2.167969 -1.957031 2.394531 -2.082031 2.578125 -2.195312 C 2.757812 -2.304688 2.902344 -2.421875 3.007812 -2.542969 C 3.113281 -2.65625 3.1875 -2.78125 3.230469 -2.914062 C 3.277344 -3.046875 3.296875 -3.195312 3.296875 -3.359375 C 3.296875 -3.726562 3.210938 -3.996094 3.039062 -4.164062 C 2.863281 -4.332031 2.632812 -4.414062 2.34375 -4.414062 C 2.253906 -4.414062 2.171875 -4.40625 2.089844 -4.394531 C 2.011719 -4.382812 1.925781 -4.359375 1.839844 -4.324219 C 1.882812 -4.191406 1.925781 -4.058594 1.964844 -3.917969 C 2.007812 -3.78125 2.027344 -3.625 2.027344 -3.453125 C 2.027344 -3.25 1.953125 -3.085938 1.804688 -2.964844 C 1.65625 -2.84375 1.46875 -2.78125 1.242188 -2.78125 C 1.023438 -2.78125 0.851562 -2.851562 0.722656 -2.996094 C 0.59375 -3.136719 0.53125 -3.308594 0.53125 -3.511719 C 0.53125 -3.863281 0.734375 -4.167969 1.144531 -4.425781 C 1.558594 -4.683594 2.058594 -4.8125 2.648438 -4.8125 C 3.332031 -4.8125 3.882812 -4.695312 4.304688 -4.460938 C 4.726562 -4.226562 4.933594 -3.851562 4.933594 -3.328125 C 4.933594 -3.058594 4.878906 -2.84375 4.769531 -2.679688 C 4.65625 -2.511719 4.492188 -2.367188 4.273438 -2.242188 C 4.082031 -2.132812 3.867188 -2.039062 3.628906 -1.964844 C 3.394531 -1.894531 3.140625 -1.824219 2.875 -1.757812 C 2.585938 -1.6875 2.335938 -1.609375 2.125 -1.527344 C 1.910156 -1.445312 1.722656 -1.351562 1.558594 -1.238281 L 1.558594 -1.1875 L 5.183594 -1.1875 Z "/>
</g>
</g>
</defs>
<g fill="rgb(22.352941%, 82.745098%, 32.54902%)" fill-opacity="1">
<use xlink:href="#glyph-0-0" x="30" y="28.150391"/>
</g>
</svg>
