<?xml version="1.0" encoding="UTF-8"?>
<svg xmlns="http://www.w3.org/2000/svg" xmlns:xlink="http://www.w3.org/1999/xlink" width="1920" height="1080" viewBox="0 0 1920 1080">
<defs>
<g>
<g id="glyph-0-0">
<path d="M 4.496094 -1.457031 C 4.671875 -1.34375 4.816406 -1.1875 4.929688 -0.996094 C 5.046875 -0.804688 5.105469 -0.566406 5.105469 -0.285156 C 5.105469 0.253906 4.84375 0.703125 4.328125 1.0625 C 3.808594 1.421875 3.140625 1.601562 2.328125 1.601562 C 1.742188 1.601562 1.246094 1.476562 0.835938 1.226562 C 0.429688 0.976562 0.226562 0.667969 0.226562 0.304688 C 0.226562 0.0976562 0.292969 -0.0742188 0.421875 -0.21875 C 0.554688 -0.359375 0.730469 -0.429688 0.949219 -0.429688 C 1.179688 -0.429688 1.367188 -0.367188 1.511719 -0.246094 C 1.660156 -0.121094 1.730469 0.0429688 1.730469 0.246094 C 1.730469 0.390625 1.707031 0.546875 1.65625 0.722656 C 1.605469 0.898438 1.566406 1.027344 1.535156 1.109375 C 1.601562 1.140625 1.683594 1.164062 1.785156 1.179688 C 1.886719 1.195312 2.003906 1.203125 2.140625 1.203125 C 2.308594 1.203125 2.472656 1.175781 2.632812 1.121094 C 2.792969 1.066406 2.933594 0.976562 3.050781 0.851562 C 3.175781 0.71875 3.273438 0.566406 3.339844 0.394531 C 3.40625 0.21875 3.441406 -0.015625 3.441406 -0.304688 C 3.441406 -0.46875 3.425781 -0.625 3.394531 -0.773438 C 3.367188 -0.921875 3.308594 -1.050781 3.230469 -1.160156 C 3.148438 -1.269531 3.039062 -1.355469 2.898438 -1.417969 C 2.757812 -1.480469 2.578125 -1.511719 2.359375 -1.511719 L 1.808594 -1.511719 L 1.808594 -2.035156 L 2.199219 -2.035156 C 2.566406 -2.035156 2.828125 -2.144531 2.992188 -2.359375 C 3.15625 -2.574219 3.238281 -2.902344 3.238281 -3.347656 C 3.238281 -3.703125 3.160156 -3.96875 3 -4.148438 C 2.84375 -4.324219 2.617188 -4.414062 2.316406 -4.414062 C 2.203125 -4.414062 2.105469 -4.40625 2.023438 -4.394531 C 1.9375 -4.382812 1.851562 -4.359375 1.765625 -4.324219 C 1.796875 -4.226562 1.835938 -4.085938 1.882812 -3.910156 C 1.929688 -3.734375 1.953125 -3.582031 1.953125 -3.460938 C 1.953125 -3.253906 1.882812 -3.089844 1.742188 -2.96875 C 1.597656 -2.847656 1.414062 -2.785156 1.183594 -2.785156 C 0.96875 -2.785156 0.796875 -2.859375 0.667969 -3 C 0.539062 -3.140625 0.472656 -3.3125 0.472656 -3.515625 C 0.472656 -3.875 0.679688 -4.179688 1.097656 -4.433594 C 1.511719 -4.6875 2.03125 -4.8125 2.660156 -4.8125 C 3.09375 -4.8125 3.453125 -4.761719 3.738281 -4.660156 C 4.023438 -4.558594 4.25 -4.4375 4.414062 -4.289062 C 4.578125 -4.144531 4.6875 -3.988281 4.75 -3.820312 C 4.8125 -3.65625 4.84375 -3.503906 4.84375 -3.371094 C 4.84375 -3.246094 4.816406 -3.101562 4.765625 -2.941406 C 4.710938 -2.78125 4.632812 -2.640625 4.527344 -2.515625 C 4.398438 -2.371094 4.234375 -2.242188 4.027344 -2.136719 C 3.824219 -2.027344 3.582031 -1.945312 3.308594 -1.886719 L 3.308594 -1.820312 C 3.496094 -1.808594 3.699219 -1.773438 3.917969 -1.714844 C 4.136719 -1.65625 4.328125 -1.570312 4.496094 -1.457031 Z "/>
</g>
</g>
</defs>
<g fill="rgb(100%, 84.313725%, 0%)" fill-opacity="1">
<use xlink:href="#glyph-0-0" x="30" y="28.150391"/>
</g>
</svg>
