<?xml version="1.0" encoding="UTF-8"?>
<svg xmlns="http://www.w3.org/2000/svg" xmlns:xlink="http://www.w3.org/1999/xlink" width="1920" height="1080" viewBox="0 0 1920 1080">
<defs>
<g>
<g id="glyph-0-0">
<path d="M 2.855469 -0.820312 C 3.382812 -0.800781 3.644531 -0.902344 3.644531 -1.125 L 3.644531 -4.101562 C 3.644531 -4.285156 3.382812 -4.375 2.855469 -4.375 L 2.855469 -4.527344 C 3.300781 -4.527344 3.675781 -4.660156 3.980469 -4.921875 L 4.132812 -4.921875 L 4.132812 -1.125 C 4.132812 -0.902344 4.394531 -0.800781 4.921875 -0.820312 L 4.921875 -0.636719 L 2.855469 -0.636719 L 2.855469 -0.820312 M 6.5625 -0.304688 C 5.953125 0.363281 5.128906 0.730469 4.085938 0.789062 C 3.042969 0.851562 2.152344 0.527344 1.414062 -0.183594 C 0.671875 -0.890625 0.296875 -1.722656 0.289062 -2.671875 C 0.277344 -3.625 0.535156 -4.414062 1.0625 -5.042969 C 1.589844 -5.671875 2.117188 -6.054688 2.644531 -6.199219 C 3.167969 -6.339844 3.605469 -6.410156 3.949219 -6.410156 C 4.253906 -6.410156 4.652344 -6.347656 5.148438 -6.226562 C 5.644531 -6.105469 6.167969 -5.726562 6.714844 -5.089844 C 7.261719 -4.449219 7.523438 -3.660156 7.503906 -2.71875 C 7.484375 -1.777344 7.167969 -0.972656 6.5625 -0.304688 M 5.195312 0.335938 C 5.703125 0.171875 6.175781 -0.210938 6.621094 -0.820312 C 7.070312 -1.429688 7.269531 -2.171875 7.230469 -3.054688 C 7.191406 -3.933594 6.839844 -4.683594 6.183594 -5.300781 C 5.523438 -5.917969 4.734375 -6.210938 3.8125 -6.183594 C 2.890625 -6.152344 2.113281 -5.796875 1.472656 -5.117188 C 0.835938 -4.441406 0.527344 -3.65625 0.546875 -2.765625 C 0.566406 -1.875 0.84375 -1.144531 1.382812 -0.578125 C 1.917969 -0.0117188 2.410156 0.324219 2.855469 0.425781 C 3.300781 0.527344 3.644531 0.578125 3.890625 0.578125 C 4.253906 0.578125 4.6875 0.496094 5.195312 0.335938 Z "/>
</g>
</g>
</defs>
<g fill="rgb(0%, 83.137255%, 100%)" fill-opacity="1">
<use xlink:href="#glyph-0-0" x="30" y="26.683594"/>
</g>
</svg>
