<?xml version="1.0" encoding="UTF-8"?>
<svg xmlns="http://www.w3.org/2000/svg" xmlns:xlink="http://www.w3.org/1999/xlink" width="1920" height="1080" viewBox="0 0 1920 1080">
<defs>
<g>
<g id="glyph-0-0">
<path d="M 3.933594 -7.691406 C 3.933594 -7.546875 3.886719 -7.269531 3.792969 -6.855469 C 3.699219 -6.445312 3.59375 -5.910156 3.476562 -5.25 L 3.140625 -5.25 C 3.058594 -5.785156 2.964844 -6.296875 2.863281 -6.78125 C 2.757812 -7.265625 2.707031 -7.570312 2.707031 -7.691406 C 2.707031 -7.859375 2.757812 -8.003906 2.859375 -8.121094 C 2.960938 -8.242188 3.113281 -8.300781 3.320312 -8.300781 C 3.519531 -8.300781 3.671875 -8.242188 3.777344 -8.121094 C 3.878906 -8.003906 3.933594 -7.859375 3.933594 -7.691406 M 1.859375 -7.691406 C 1.859375 -7.546875 1.8125 -7.269531 1.71875 -6.855469 C 1.625 -6.445312 1.519531 -5.910156 1.40625 -5.25 L 1.074219 -5.25 C 0.976562 -5.867188 0.878906 -6.390625 0.785156 -6.828125 C 0.6875 -7.261719 0.640625 -7.550781 0.640625 -7.691406 C 0.640625 -7.859375 0.691406 -8.003906 0.792969 -8.121094 C 0.894531 -8.242188 1.046875 -8.300781 1.253906 -8.300781 C 1.449219 -8.300781 1.597656 -8.242188 1.703125 -8.121094 C 1.808594 -8.003906 1.859375 -7.859375 1.859375 -7.691406 Z "/>
</g>
<g id="glyph-0-1">
<path d="M 4.976562 -0.554688 C 5.121094 -0.414062 5.234375 -0.261719 5.316406 -0.0859375 C 5.398438 0.0859375 5.441406 0.300781 5.441406 0.558594 C 5.441406 0.816406 5.386719 1.058594 5.273438 1.28125 C 5.160156 1.507812 4.992188 1.707031 4.761719 1.871094 C 4.519531 2.042969 4.230469 2.171875 3.894531 2.269531 C 3.558594 2.363281 3.144531 2.410156 2.648438 2.410156 C 1.835938 2.410156 1.230469 2.289062 0.828125 2.054688 C 0.429688 1.816406 0.226562 1.46875 0.226562 1.015625 C 0.226562 0.644531 0.371094 0.355469 0.660156 0.140625 C 0.953125 -0.0742188 1.320312 -0.1875 1.769531 -0.207031 L 1.769531 -0.28125 C 1.660156 -0.316406 1.546875 -0.355469 1.433594 -0.402344 C 1.316406 -0.453125 1.21875 -0.511719 1.132812 -0.574219 C 1.039062 -0.652344 0.964844 -0.742188 0.90625 -0.84375 C 0.847656 -0.945312 0.820312 -1.074219 0.820312 -1.226562 C 0.820312 -1.417969 0.886719 -1.59375 1.023438 -1.753906 C 1.160156 -1.914062 1.363281 -2.054688 1.636719 -2.171875 L 1.636719 -2.25 C 1.292969 -2.414062 1.023438 -2.625 0.828125 -2.878906 C 0.636719 -3.132812 0.542969 -3.429688 0.542969 -3.765625 C 0.542969 -4.269531 0.730469 -4.6875 1.109375 -5.011719 C 1.488281 -5.339844 1.972656 -5.5 2.5625 -5.5 C 2.722656 -5.5 2.886719 -5.484375 3.046875 -5.453125 C 3.207031 -5.417969 3.371094 -5.378906 3.539062 -5.328125 L 5.402344 -5.328125 L 5.402344 -4.808594 L 4.144531 -4.808594 L 4.144531 -4.773438 C 4.277344 -4.617188 4.378906 -4.445312 4.441406 -4.257812 C 4.507812 -4.070312 4.539062 -3.886719 4.539062 -3.707031 C 4.539062 -3.234375 4.351562 -2.835938 3.96875 -2.511719 C 3.585938 -2.1875 3.144531 -2.023438 2.636719 -2.023438 L 1.980469 -2.023438 C 1.898438 -1.996094 1.808594 -1.941406 1.71875 -1.867188 C 1.628906 -1.789062 1.585938 -1.6875 1.585938 -1.558594 C 1.585938 -1.421875 1.621094 -1.320312 1.699219 -1.25 C 1.773438 -1.179688 1.867188 -1.132812 1.976562 -1.105469 C 2.078125 -1.078125 2.203125 -1.058594 2.339844 -1.050781 C 2.480469 -1.046875 2.625 -1.039062 2.773438 -1.035156 C 2.929688 -1.03125 3.148438 -1.023438 3.425781 -1.003906 C 3.703125 -0.984375 3.898438 -0.976562 4.015625 -0.972656 C 4.179688 -0.964844 4.347656 -0.925781 4.515625 -0.851562 C 4.683594 -0.78125 4.835938 -0.679688 4.976562 -0.554688 M 3.511719 -3.726562 C 3.511719 -4.148438 3.425781 -4.488281 3.253906 -4.738281 C 3.082031 -4.988281 2.839844 -5.117188 2.527344 -5.117188 C 2.359375 -5.117188 2.210938 -5.082031 2.089844 -5.011719 C 1.96875 -4.941406 1.871094 -4.839844 1.796875 -4.710938 C 1.722656 -4.589844 1.671875 -4.445312 1.640625 -4.277344 C 1.609375 -4.109375 1.59375 -3.9375 1.59375 -3.757812 C 1.59375 -3.359375 1.683594 -3.03125 1.859375 -2.777344 C 2.035156 -2.523438 2.261719 -2.398438 2.539062 -2.398438 C 2.851562 -2.398438 3.089844 -2.523438 3.257812 -2.773438 C 3.425781 -3.027344 3.511719 -3.34375 3.511719 -3.726562 M 4.550781 0.757812 C 4.550781 0.558594 4.503906 0.390625 4.410156 0.261719 C 4.316406 0.128906 4.171875 0.0429688 3.980469 -0.00390625 C 3.878906 -0.0195312 3.671875 -0.0351562 3.359375 -0.0546875 C 3.042969 -0.0742188 2.679688 -0.0820312 2.261719 -0.0820312 C 1.871094 -0.00390625 1.59375 0.121094 1.429688 0.300781 C 1.265625 0.480469 1.183594 0.710938 1.183594 0.992188 C 1.183594 1.121094 1.210938 1.242188 1.265625 1.355469 C 1.316406 1.472656 1.414062 1.578125 1.546875 1.675781 C 1.671875 1.769531 1.84375 1.847656 2.054688 1.90625 C 2.269531 1.964844 2.53125 1.996094 2.835938 1.996094 C 3.367188 1.996094 3.789062 1.894531 4.09375 1.691406 C 4.398438 1.484375 4.550781 1.175781 4.550781 0.757812 Z "/>
</g>
<g id="glyph-0-2">
<path d="M 5.457031 -0.0976562 C 5.289062 -0.0351562 5.136719 0.0117188 5.011719 0.0507812 C 4.882812 0.0898438 4.734375 0.109375 4.574219 0.109375 C 4.292969 0.109375 4.066406 0.0429688 3.898438 -0.0898438 C 3.730469 -0.222656 3.621094 -0.414062 3.574219 -0.667969 L 3.542969 -0.667969 C 3.308594 -0.40625 3.054688 -0.207031 2.785156 -0.0703125 C 2.515625 0.0664062 2.191406 0.136719 1.8125 0.136719 C 1.410156 0.136719 1.082031 0.0117188 0.820312 -0.234375 C 0.5625 -0.480469 0.433594 -0.800781 0.433594 -1.199219 C 0.433594 -1.40625 0.464844 -1.589844 0.519531 -1.753906 C 0.578125 -1.914062 0.664062 -2.0625 0.78125 -2.191406 C 0.871094 -2.300781 0.992188 -2.398438 1.140625 -2.480469 C 1.289062 -2.566406 1.425781 -2.636719 1.558594 -2.683594 C 1.71875 -2.746094 2.050781 -2.859375 2.546875 -3.027344 C 3.042969 -3.195312 3.378906 -3.324219 3.554688 -3.417969 L 3.554688 -3.953125 C 3.554688 -4 3.542969 -4.09375 3.523438 -4.226562 C 3.503906 -4.359375 3.460938 -4.488281 3.394531 -4.605469 C 3.324219 -4.738281 3.222656 -4.855469 3.089844 -4.957031 C 2.957031 -5.054688 2.769531 -5.105469 2.527344 -5.105469 C 2.363281 -5.105469 2.207031 -5.078125 2.0625 -5.019531 C 1.921875 -4.964844 1.820312 -4.90625 1.761719 -4.84375 C 1.761719 -4.773438 1.78125 -4.664062 1.816406 -4.523438 C 1.847656 -4.382812 1.867188 -4.253906 1.867188 -4.132812 C 1.867188 -4.007812 1.808594 -3.890625 1.695312 -3.785156 C 1.582031 -3.683594 1.421875 -3.628906 1.21875 -3.628906 C 1.039062 -3.628906 0.90625 -3.695312 0.820312 -3.820312 C 0.738281 -3.949219 0.695312 -4.09375 0.695312 -4.253906 C 0.695312 -4.417969 0.753906 -4.578125 0.871094 -4.730469 C 0.988281 -4.882812 1.140625 -5.019531 1.328125 -5.136719 C 1.492188 -5.238281 1.6875 -5.324219 1.921875 -5.394531 C 2.152344 -5.464844 2.378906 -5.5 2.597656 -5.5 C 2.902344 -5.5 3.167969 -5.480469 3.394531 -5.4375 C 3.621094 -5.398438 3.824219 -5.308594 4.007812 -5.171875 C 4.195312 -5.035156 4.332031 -4.855469 4.429688 -4.625 C 4.527344 -4.394531 4.574219 -4.097656 4.574219 -3.738281 C 4.574219 -3.222656 4.566406 -2.761719 4.558594 -2.363281 C 4.546875 -1.964844 4.539062 -1.527344 4.539062 -1.050781 C 4.539062 -0.910156 4.566406 -0.800781 4.613281 -0.714844 C 4.664062 -0.632812 4.738281 -0.5625 4.839844 -0.503906 C 4.894531 -0.472656 4.980469 -0.453125 5.097656 -0.449219 C 5.214844 -0.445312 5.335938 -0.445312 5.457031 -0.445312 L 5.457031 -0.0976562 M 3.5625 -2.960938 C 3.257812 -2.871094 2.988281 -2.78125 2.757812 -2.695312 C 2.523438 -2.609375 2.308594 -2.5 2.109375 -2.371094 C 1.929688 -2.246094 1.785156 -2.101562 1.683594 -1.933594 C 1.578125 -1.761719 1.523438 -1.5625 1.523438 -1.332031 C 1.523438 -1.03125 1.601562 -0.808594 1.761719 -0.667969 C 1.917969 -0.527344 2.117188 -0.457031 2.359375 -0.457031 C 2.617188 -0.457031 2.84375 -0.519531 3.039062 -0.644531 C 3.234375 -0.769531 3.398438 -0.917969 3.53125 -1.085938 Z "/>
</g>
<g id="glyph-0-3">
<path d="M 3.695312 -0.234375 C 3.460938 -0.136719 3.238281 -0.0546875 3.027344 0.0117188 C 2.816406 0.0820312 2.5625 0.113281 2.257812 0.113281 C 1.808594 0.113281 1.492188 0 1.308594 -0.226562 C 1.128906 -0.453125 1.035156 -0.769531 1.035156 -1.183594 L 1.035156 -4.808594 L 0.0703125 -4.808594 L 0.0703125 -5.328125 L 1.058594 -5.328125 L 1.058594 -6.992188 L 2.046875 -6.992188 L 2.046875 -5.328125 L 3.582031 -5.328125 L 3.582031 -4.808594 L 2.054688 -4.808594 L 2.054688 -1.816406 C 2.054688 -1.59375 2.0625 -1.40625 2.082031 -1.257812 C 2.097656 -1.105469 2.136719 -0.976562 2.195312 -0.863281 C 2.253906 -0.757812 2.34375 -0.679688 2.457031 -0.625 C 2.574219 -0.570312 2.730469 -0.542969 2.925781 -0.542969 C 3.015625 -0.542969 3.148438 -0.550781 3.324219 -0.566406 C 3.5 -0.582031 3.621094 -0.605469 3.695312 -0.628906 Z "/>
</g>
<g id="glyph-0-4">
<path d="M 5.609375 -2.730469 C 5.609375 -2.351562 5.550781 -1.984375 5.429688 -1.621094 C 5.3125 -1.257812 5.140625 -0.949219 4.917969 -0.695312 C 4.671875 -0.40625 4.378906 -0.191406 4.050781 -0.046875 C 3.722656 0.09375 3.351562 0.164062 2.941406 0.164062 C 2.601562 0.164062 2.277344 0.0976562 1.972656 -0.03125 C 1.664062 -0.160156 1.390625 -0.34375 1.152344 -0.589844 C 0.914062 -0.832031 0.726562 -1.128906 0.589844 -1.476562 C 0.449219 -1.828125 0.378906 -2.21875 0.378906 -2.652344 C 0.378906 -3.488281 0.625 -4.171875 1.109375 -4.703125 C 1.597656 -5.234375 2.234375 -5.5 3.023438 -5.5 C 3.773438 -5.5 4.390625 -5.25 4.878906 -4.746094 C 5.367188 -4.238281 5.609375 -3.566406 5.609375 -2.730469 M 4.488281 -2.71875 C 4.488281 -2.988281 4.460938 -3.277344 4.40625 -3.578125 C 4.351562 -3.878906 4.269531 -4.136719 4.160156 -4.34375 C 4.042969 -4.570312 3.890625 -4.75 3.703125 -4.886719 C 3.515625 -5.019531 3.285156 -5.089844 3.011719 -5.089844 C 2.734375 -5.089844 2.496094 -5.019531 2.300781 -4.882812 C 2.101562 -4.746094 1.941406 -4.558594 1.816406 -4.320312 C 1.703125 -4.097656 1.621094 -3.847656 1.574219 -3.5625 C 1.527344 -3.28125 1.503906 -3.007812 1.503906 -2.746094 C 1.503906 -2.398438 1.53125 -2.078125 1.585938 -1.78125 C 1.644531 -1.488281 1.734375 -1.222656 1.855469 -0.992188 C 1.980469 -0.761719 2.132812 -0.578125 2.320312 -0.449219 C 2.507812 -0.316406 2.738281 -0.25 3.011719 -0.25 C 3.464844 -0.25 3.824219 -0.46875 4.089844 -0.90625 C 4.355469 -1.34375 4.488281 -1.949219 4.488281 -2.71875 Z "/>
</g>
</g>
</defs>
<g fill="rgb(100%, 100%, 100%)" fill-opacity="1">
<use xlink:href="#glyph-0-0" x="30" y="30.188477"/>
<use xlink:href="#glyph-0-1" x="35" y="30.188477"/>
<use xlink:href="#glyph-0-2" x="41" y="30.188477"/>
<use xlink:href="#glyph-0-3" x="47" y="30.188477"/>
<use xlink:href="#glyph-0-4" x="51" y="30.188477"/>
<use xlink:href="#glyph-0-0" x="57" y="30.188477"/>
</g>
</svg>
